<svg xmlns="http://www.w3.org/2000/svg" viewBox="0 0 256 256"><g fill="#000000"><path d="M200.61 76.22H55.39a5.33 5.33 0 00-5.32 5.32v72.92a5.33 5.33 0 005.32 5.32h145.22a5.33 5.33 0 005.32-5.32V81.54a5.33 5.33 0 00-5.32-5.32zM64 103a16.22 16.22 0 1116.2 16.25A16.22 16.22 0 0164 103zm25 51.3l28-48.51 11.41 19.73L152 84.82l40.18 69.48z"/><path d="M216.37 35.82L128 0 39.63 35.82 6.11 89l3.39 87.25 51.6 40.11L128 256l66.91-39.64 51.6-40.11L249.89 89zm-5.75 118.64a10 10 0 01-10 10H55.39a10 10 0 01-10-10V81.54a10 10 0 0110-10h145.22a10 10 0 0110 10z"/></g></svg>