<svg xmlns="http://www.w3.org/2000/svg" xmlns:xlink="http://www.w3.org/1999/xlink" viewBox="0 0 256 256"><defs><clipPath id="a"><path fill="none" clip-rule="evenodd" d="M127.99 0L39.63 35.82 6.11 89.03l3.39 87.22 51.6 40.11L127.99 256l66.91-39.64 51.6-40.11 3.39-87.22-33.52-53.21L127.99 0z"/></clipPath><clipPath id="b"><path fill="none" d="M0 0h128v256H0z"/></clipPath><clipPath id="d"><path fill="none" d="M128 0h128v256H128z"/></clipPath><clipPath id="g"><path fill="none" d="M156.1 0a5.52 5.52 0 015.51 5.52v75.61a5.52 5.52 0 01-5.51 5.52H5.52A5.52 5.52 0 010 81.13V5.52A5.52 5.52 0 015.52 0H156.1"/></clipPath><symbol id="c" viewBox="0 0 161.62 86.65"><path d="M156.1 0a5.52 5.52 0 015.51 5.52v75.61a5.52 5.52 0 01-5.51 5.52H5.52A5.52 5.52 0 010 81.13V5.52A5.52 5.52 0 015.52 0H156.1" fill="#0092FF"/><circle cx="40.08" cy="30.57" r="13.81" fill="#ffe105"/><path fill="#58b78c" d="M102.67 10.65L79.64 50.49 68.47 31.18 41.02 78.65H142l-39.33-68z"/></symbol><filter id="e" width="150%" height="150%" filterUnits="userSpaceOnUse"><feGaussianBlur stdDeviation="15"/></filter></defs><g clip-path="url(#a)"><path fill="#0b121f" d="M0 0h256v256H0z"/></g><g clip-path="url(#b)"><use width="161.61" height="86.65" transform="matrix(1.17 0 0 1.17 33.15 67.15)" xlink:href="#c"/></g><g clip-path="url(#d)"><g transform="matrix(1.17 0 0 1.17 33.15 67.15)" clip-path="url(#g)"><g filter="url(#e)"><use width="161.62" height="86.65" xlink:href="#c"/></g></g></g></svg>
